HIERARCHY
ROOT Hips
{
	OFFSET	0.00	0.00	0.00
	CHANNELS 6 Xposition Yposition Zposition Zrotation Xrotation Yrotation
	JOINT LeftUpLeg
	{
		OFFSET	 0.126116	-0.014019	-0.065224
		CHANNELS 3 Zrotation Xrotation Yrotation
		JOINT LeftLeg
		{
			OFFSET	 0.000000	 0.000000	 0.569914
			CHANNELS 3 Zrotation Xrotation Yrotation
			JOINT LeftFoot
			{
				OFFSET	 0.000000	 0.000000	 0.544423
				CHANNELS 3 Zrotation Xrotation Yrotation
				JOINT LeftToeBase
				{
					OFFSET	 0.000000	 0.000000	 0.207117
					CHANNELS 3 Zrotation Xrotation Yrotation
					End Site
					{
						OFFSET	 0.000000	 0.000000	 0.207117
					}
				}
			}
		}
	}
	JOINT RightUpLeg
	{
		OFFSET	-0.124023	-0.008373	-0.065224
		CHANNELS 3 Zrotation Xrotation Yrotation
		JOINT RightLeg
		{
			OFFSET	 0.000000	 0.000000	 0.570047
			CHANNELS 3 Zrotation Xrotation Yrotation
			JOINT RightFoot
			{
				OFFSET	 0.000000	 0.000000	 0.544354
				CHANNELS 3 Zrotation Xrotation Yrotation
				JOINT RightToeBase
				{
					OFFSET	 0.000000	 0.000000	 0.207540
					CHANNELS 3 Zrotation Xrotation Yrotation
					End Site
					{
						OFFSET	 0.000000	 0.000000	 0.207540
					}
				}
			}
		}
	}
	JOINT Spine
	{
		OFFSET	 0.000184	-0.007763	 0.117403
		CHANNELS 3 Zrotation Xrotation Yrotation
		JOINT Spine1
		{
			OFFSET	 0.000000	 0.000000	 0.137269
			CHANNELS 3 Zrotation Xrotation Yrotation
			JOINT Spine2
			{
				OFFSET	 0.000000	 0.000000	 0.156879
				CHANNELS 3 Zrotation Xrotation Yrotation
				JOINT LeftShoulder
				{
					OFFSET	 0.080501	-0.002496	 0.160144
					CHANNELS 3 Zrotation Xrotation Yrotation
					JOINT LeftArm
					{
						OFFSET	 0.000000	 0.000000	 0.164363
						CHANNELS 3 Zrotation Xrotation Yrotation
						JOINT LeftForeArm
						{
							OFFSET	 0.000000	 0.000000	 0.364576
							CHANNELS 3 Zrotation Xrotation Yrotation
							JOINT LeftHand
							{
								OFFSET	 0.000000	 0.000000	 0.360812
								CHANNELS 3 Zrotation Xrotation Yrotation
								JOINT LeftHandIndex1
								{
									OFFSET	 0.000000	 0.000000	 0.086006
									CHANNELS 3 Zrotation Xrotation Yrotation
									JOINT LeftHandIndex2
									{
										OFFSET	 0.000000	 0.000000	 0.047236
										CHANNELS 3 Zrotation Xrotation Yrotation
										JOINT LeftHandIndex3
										{
											OFFSET	-0.004284	-0.000551	 0.038166
											CHANNELS 3 Zrotation Xrotation Yrotation
											End Site
											{
												OFFSET	-0.004284	-0.000551	 0.038166
											}
										}
									}
								}
							}
						}
					}
				}
				JOINT Neck
				{
					OFFSET	 0.000000	 0.000000	 0.176489
					CHANNELS 3 Zrotation Xrotation Yrotation
					JOINT Head
					{
						OFFSET	 0.000000	-0.001747	 0.077940
						CHANNELS 3 Zrotation Xrotation Yrotation
						End Site
						{
							OFFSET	 0.000000	-0.001747	 0.077940
						}
					}
				}
				JOINT RightShoulder
				{
					OFFSET	-0.080363	 0.000306	 0.159706
					CHANNELS 3 Zrotation Xrotation Yrotation
					JOINT RightArm
					{
						OFFSET	 0.000000	 0.000000	 0.164196
						CHANNELS 3 Zrotation Xrotation Yrotation
						JOINT RightForeArm
						{
							OFFSET	 0.000000	 0.000000	 0.365611
							CHANNELS 3 Zrotation Xrotation Yrotation
							JOINT RightHand
							{
								OFFSET	 0.000000	 0.000000	 0.360648
								CHANNELS 3 Zrotation Xrotation Yrotation
								JOINT RightHandIndex1
								{
									OFFSET	 0.000000	 0.000000	 0.069977
									CHANNELS 3 Zrotation Xrotation Yrotation
									JOINT RightHandIndex2
									{
										OFFSET	 0.000000	 0.000000	 0.052305
										CHANNELS 3 Zrotation Xrotation Yrotation
										JOINT RightHandIndex3
										{
											OFFSET	 0.009002	-0.000782	 0.042196
											CHANNELS 3 Zrotation Xrotation Yrotation
											End Site
											{
												OFFSET	 0.009002	-0.000782	 0.042196
											}
										}
									}
								}
							}
						}
					}
				}
			}
		}
	}
}
MOTION
Frames:    6
Frame Time: 0.03333334
-0.000088	 0.042612	 1.277029	-0.082989	 2.465494	 0.443290	-11.953650	-5.416747	 179.825100	 2.280542	-12.832430	 0.599447	 0.511876	 71.195790	-0.751171	-2.385833	 28.452750	 0.000004	 19.543520	-5.037224	-179.843100	-0.795709	-11.436690	 0.864254	 4.963748	 70.185540	 1.403905	 2.384659	 28.388700	-0.000001	-6.182759	 6.334843	 1.377949	-3.069609	-3.468927	-0.265011	 9.533144	 6.081505	-0.587957	-91.174100	 69.819070	-177.837400	-7.536613	 1.951681	 1.363851	 22.827460	-9.776598	-37.871750	-10.102600	-30.138030	-4.669226	-2.027600	 6.559038	 9.033609	-5.188889	 0.308190	 3.541030	-5.234859	 0.342567	 0.430617	 4.360433	 17.705680	-6.660613	 4.671328	-13.625940	 2.187409	 89.021050	 68.725720	 177.378700	 9.034963	 6.850497	 8.931960	-27.486400	-5.816749	 15.693670	 7.963740	-30.181160	 7.003582	 1.803333	 3.979147	-15.098590	 4.898592	 3.004813	-9.310344	 5.224449	 0.395017	 2.014677
-0.000155	 0.043031	 1.277462	-0.076765	 2.601610	 0.444653	-11.972970	-5.471373	 179.783700	 2.249417	-12.606880	 0.582273	 0.418378	 71.016690	-0.619285	-2.385833	 28.452750	 0.000004	 19.539380	-5.062745	-179.779000	-0.794580	-11.161380	 0.843934	 5.003708	 69.992430	 1.350795	 2.384659	 28.388700	-0.000001	-6.191274	 6.425090	 1.403982	-3.086099	-3.805238	-0.306010	 9.559587	 6.475090	-0.628495	-91.139470	 69.581690	-177.757300	-7.387284	 1.817113	 1.177031	 22.724590	-9.758267	-38.059910	-9.794388	-30.602460	-4.751368	-2.027600	 6.559038	 9.033609	-5.188889	 0.308190	 3.541030	-5.234859	 0.342567	 0.430617	 4.432281	 18.325920	-6.856545	 4.729909	-14.104320	 2.200841	 88.973770	 68.399480	 177.282500	 8.838046	 6.589427	 9.130302	-27.496520	-5.912914	 15.930720	 7.590779	-30.528030	 6.901801	 1.803333	 3.979147	-15.098590	 4.898592	 3.004813	-9.310344	 5.224449	 0.395017	 2.014677
-0.000368	 0.044496	 1.278776	-0.056622	 3.040421	 0.450071	-12.034750	-5.664550	 179.645600	 2.150717	-11.901680	 0.529790	 0.127352	 70.440690	-0.205424	-2.385833	 28.452750	 0.000004	 19.524300	-5.156453	-179.571200	-0.790162	-10.283600	 0.779111	 5.139658	 69.366230	 1.171099	 2.384659	 28.388700	-0.000001	-6.206238	 6.721388	 1.484844	-3.139383	-4.849108	-0.427698	 9.631190	 7.733952	-0.761936	-91.023710	 68.814030	-177.501600	-6.875444	 1.498166	 0.580229	 22.392620	-9.710870	-38.717350	-8.838323	-32.126640	-5.040967	-2.027600	 6.559038	 9.033609	-5.188889	 0.308190	 3.541030	-5.234859	 0.342567	 0.430617	 4.681634	 20.330450	-7.499071	 4.910533	-15.643930	 2.244943	 88.815620	 67.344470	 176.975900	 8.233391	 5.871738	 9.750959	-27.536820	-6.245091	 16.738450	 6.401292	-31.687800	 6.578169	 1.803333	 3.979147	-15.098590	 4.898592	 3.004813	-9.310344	 5.224449	 0.395017	 2.014677
-0.000769	 0.046766	 1.279966	-0.001239	 3.706858	 0.481283	-12.154670	-6.252140	 179.402300	 2.147928	-11.439010	 0.508920	-0.464028	 70.038030	 0.440417	-2.385833	 28.452750	 0.000004	 19.460520	-5.550370	-179.308500	-0.798366	-9.451636	 0.715332	 5.412023	 68.686990	 0.852872	 2.384659	 28.388700	-0.000001	-6.068106	 7.032386	 1.560686	-3.149640	-6.186641	-0.622448	 9.491326	 9.059440	-0.862458	-90.936290	 68.200190	-177.328700	-6.338902	 1.716110	 0.166348	 21.927120	-9.615424	-39.595340	-8.193933	-34.272870	-5.625584	-2.027600	 6.559038	 9.033609	-5.188889	 0.308190	 3.541030	-5.234859	 0.342567	 0.430617	 4.712342	 22.194070	-8.040098	 5.119251	-17.243420	 2.361624	 88.650110	 66.173300	 176.696500	 7.489195	 5.368472	 10.230140	-27.345030	-6.588661	 17.774470	 5.206959	-33.321020	 6.367710	 1.803333	 3.979147	-15.098590	 4.898592	 3.004813	-9.310344	 5.224449	 0.395017	 2.014677
-0.001117	 0.048975	 1.280837	 0.047925	 4.290394	 0.509828	-12.293040	-6.824561	 179.176600	 2.120972	-11.128590	 0.496341	-0.974015	 69.718140	 0.990748	-2.385833	 28.452750	 0.000004	 19.401340	-5.945047	-179.079800	-0.805133	-8.798565	 0.665271	 5.676144	 68.114120	 0.545072	 2.384659	 28.388700	-0.000001	-5.919890	 7.309155	 1.617012	-3.154629	-7.264639	-0.764487	 9.335359	 10.188400	-0.945701	-90.859630	 67.674160	-177.183400	-5.786705	 2.131880	-0.247704	 21.530920	-9.531178	-40.371830	-7.730353	-36.185780	-6.194939	-2.027600	 6.559038	 9.033609	-5.188889	 0.308190	 3.541030	-5.234859	 0.342567	 0.430617	 4.746355	 23.803090	-8.502938	 5.276383	-18.616090	 2.470810	 88.501990	 65.156890	 176.459500	 6.877385	 5.186567	 10.699820	-27.185560	-6.872702	 18.638350	 4.204466	-34.801930	 6.213189	 1.803333	 3.979147	-15.098590	 4.898592	 3.004813	-9.310344	 5.224449	 0.395017	 2.014677
-0.001529	 0.052039	 1.281879	 0.113702	 5.093408	 0.562654	-12.345650	-7.626513	 178.868100	 2.199130	-10.729460	 0.476595	-1.649550	 69.317040	 1.741774	-2.385833	 28.452760	 0.000004	 19.275190	-6.443956	-178.774800	-0.957497	-7.796619	 0.569234	 6.141412	 67.330570	 0.163449	 2.384659	 28.388700	-0.000001	-5.684885	 7.614376	 1.644240	-3.160026	-8.730244	-0.926762	 9.046372	 11.528620	-1.058199	-90.825940	 66.912640	-177.210900	-4.890791	 2.652198	-0.524687	 20.737990	-9.117480	-41.290840	-7.805126	-38.431330	-7.134841	-2.027600	 6.559038	 9.033609	-5.188889	 0.308190	 3.541030	-5.234859	 0.342567	 0.430617	 4.629945	 25.097310	-8.754021	 5.323597	-19.810530	 2.489054	 88.414990	 63.915980	 176.432800	 5.908763	 5.056175	 11.028790	-26.747270	-7.068067	 19.566630	 3.242915	-36.529050	 6.311923	 1.803333	 3.979147	-15.098590	 4.898592	 3.004813	-9.310344	 5.224449	 0.395017	 2.014677
